<?xml version="1.0" encoding="UTF-8"?>
<svg width="15px" height="19px" viewBox="0 0 15 19" version="1.1" xmlns="http://www.w3.org/2000/svg" xmlns:xlink="http://www.w3.org/1999/xlink">
    <!-- Generator: Sketch 63 (92445) - https://sketch.com -->
    <title>编组 4</title>
    <desc>Created with Sketch.</desc>
    <g id="页面-1" stroke="none" stroke-width="1" fill="none" fill-rule="evenodd">
        <g id="景点介绍" transform="translate(-57.000000, -548.000000)" fill="#BE0A13">
            <g id="编组-4" transform="translate(57.000000, 548.500000)">
                <path d="M14,5 L11.1240289,5 C10.506326,5 10,4.36707687 10,3.5949292 L10,0 L10.911362,0 L10.911362,3.5949292 C10.911362,3.73424646 11.0126767,3.86076927 11.1240289,3.86076927 L14,3.86076927 L14,5 Z M8.52827581,6 L4.47164741,6 C4.20964382,6 4,5.77777778 4,5.49994575 C4,5.22222222 4.20964382,5 4.47164741,5 L8.52827581,5 C8.79038177,5 9,5.22222222 9,5.49994575 C9,5.77777778 8.79038177,6 8.52827581,6 Z M10.5843879,9 L4.41552192,9 C4.18469645,9 4,8.77779888 4,8.49995931 C4,8.22220112 4.18469645,8 4.41552192,8 L10.5843879,8 C10.8153261,8 11,8.22220112 11,8.49995931 C11,8.77779888 10.8153261,9 10.5843879,9 Z M10.5843879,13 L4.41552192,13 C4.18469645,13 4,12.7776874 4,12.4999864 C4,12.2222855 4.18469645,12 4.41552192,12 L10.5843879,12 C10.8153261,12 11,12.2222855 11,12.4999864 C11,12.7776874 10.8153261,13 10.5843879,13 Z" id="Fill-3"></path>
                <path d="M13.4175423,18 L1.58235036,18 C0.714311265,18 0,17.2862275 0,16.394114 L0,1.60588601 C0,0.724935826 0.703311543,0 1.58235036,0 L10.8681017,0 L15,4.19324664 L15,16.394114 C15,17.2750642 14.2856887,18 13.4175423,18 Z M1.59236879,1.0111607 C1.26333454,1.0111607 1,1.27879961 1,1.61321215 L1,16.3979485 C1,16.7323611 1.26333454,17 1.59236879,17 L13.4076312,17 C13.7367726,17 14,16.7323611 14,16.3979485 L14,4.61255374 L10.4456534,1 L1.59236879,1 L1.59236879,1.0111607 Z" id="Fill-1"></path>
            </g>
        </g>
    </g>
</svg>