<?xml version="1.0" encoding="UTF-8"?>
<svg width="19px" height="21px" viewBox="0 0 19 21" version="1.1" xmlns="http://www.w3.org/2000/svg" xmlns:xlink="http://www.w3.org/1999/xlink">
    <!-- Generator: Sketch 63 (92445) - https://sketch.com -->
    <title>形状</title>
    <desc>Created with Sketch.</desc>
    <g id="页面-1" stroke="none" stroke-width="1" fill="none" fill-rule="evenodd">
        <g id="景点介绍" transform="translate(-304.000000, -547.000000)" fill="#B7A5A6" fill-rule="nonzero">
            <path d="M322.584544,549.064582 C322.584544,549.058824 322.581698,549.053065 322.581698,549.050185 C322.578853,549.044426 322.578853,549.038667 322.576007,549.032908 C322.573162,549.02139 322.561779,549.015631 322.556088,549.004114 C322.521941,548.920609 322.47072,548.845742 322.405272,548.785274 C322.385353,548.767997 322.368279,548.75072 322.34836,548.733443 C322.265838,548.672974 322.174779,548.626903 322.066647,548.612505 C321.736558,548.572193 321.409316,548.546277 321.079227,548.546277 C317.903549,548.546277 315.149019,550.432332 313.791673,553.176471 C313.552643,552.301111 313.188408,551.48334 312.707503,550.746195 C311.233488,548.488688 308.740752,547 305.917927,547 C305.587839,547 305.260596,547.025915 304.930508,547.066228 L304.927662,547.066228 C304.822375,547.080625 304.731316,547.126697 304.65164,547.184286 C304.628875,547.201563 304.611802,547.21884 304.591883,547.236117 C304.52928,547.296586 304.478059,547.368573 304.446758,547.449198 C304.441066,547.460716 304.429684,547.469354 304.423993,547.480872 C304.421147,547.486631 304.421147,547.495269 304.418302,547.501028 C304.418302,547.503908 304.418302,547.506787 304.415456,547.509667 C304.142279,548.350473 304,549.24311 304,550.158782 C304,554.837927 307.679347,558.644591 312.203834,558.644591 C312.434327,558.644591 312.661974,558.618675 312.886775,558.598519 L312.886775,567.380913 C312.886775,567.723571 313.159952,568 313.498577,568 C313.837202,568 314.110379,567.723571 314.110379,567.380913 L314.110379,560.164953 C314.349408,560.196627 314.588438,560.219663 314.796166,560.193747 C316.992961,560.193747 319.056013,559.309749 320.604014,557.703003 C322.149169,556.102016 323,553.971205 323,551.70506 C322.997154,550.792267 322.857721,549.905389 322.584544,549.064582 Z M305.223603,550.164541 C305.223603,549.510901 305.306126,548.874537 305.468324,548.266968 C305.61914,548.25545 305.769957,548.235294 305.920773,548.235294 C309.04523,548.235294 311.694474,550.383381 312.576606,553.331962 C312.781489,554.011518 312.889621,554.737145 312.889621,555.485808 C312.889621,555.851501 312.85832,556.211436 312.807099,556.565611 C312.790025,556.67791 312.764415,556.78733 312.74165,556.89675 C312.710349,557.066639 312.66482,557.230769 312.622136,557.394899 C312.485547,557.403538 312.346114,557.412184 312.20668,557.412184 C308.353752,557.417935 305.223603,554.16413 305.223603,550.164541 Z M319.727572,556.84204 C318.410064,558.206911 316.660027,558.958453 314.79332,558.958453 C314.653886,558.958453 314.514453,558.952694 314.377864,558.941176 C314.332335,558.777046 314.289651,558.610037 314.25835,558.443028 C314.23843,558.333608 314.209975,558.224188 314.192901,558.111888 C314.14168,557.757713 314.110379,557.397779 314.110379,557.029206 C314.110379,556.772933 314.124607,556.519539 314.150217,556.269025 C314.155908,556.222954 314.164445,556.179761 314.170136,556.13369 C314.195747,555.929247 314.224202,555.721925 314.264041,555.523241 C314.269732,555.494447 314.278269,555.465652 314.286805,555.433978 C314.33518,555.218017 314.386401,555.007816 314.45185,554.797614 C314.457541,554.783217 314.463232,554.76594 314.468923,554.751543 C314.540063,554.532703 314.619739,554.313863 314.707953,554.103661 C314.710798,554.095023 314.713644,554.089264 314.719335,554.080625 C314.813239,553.864665 314.915681,553.651584 315.026659,553.447141 L315.035195,553.429864 C315.146173,553.225422 315.268534,553.029617 315.399431,552.839572 C315.407968,552.825175 315.41935,552.813657 315.427887,552.79926 C315.550247,552.620732 315.681144,552.447964 315.820578,552.283834 C315.843343,552.255039 315.868953,552.229124 315.894563,552.200329 C316.019769,552.056355 316.147821,551.915261 316.281564,551.782805 C316.327093,551.736734 316.375468,551.693542 316.423843,551.64747 C316.537667,551.54093 316.654336,551.434389 316.773851,551.336487 C316.850681,551.273139 316.930358,551.21267 317.010034,551.152201 C317.103939,551.080214 317.200689,551.011107 317.297439,550.944879 C317.408417,550.870012 317.525086,550.798026 317.641755,550.728918 C317.710049,550.688606 317.781189,550.645413 317.852329,550.60798 C317.997454,550.527355 318.14827,550.452489 318.299086,550.383381 L318.435675,550.322912 C318.612101,550.248046 318.788528,550.178939 318.970645,550.11847 C318.999101,550.109831 319.027557,550.101193 319.056013,550.089675 C319.249513,550.029206 319.443013,549.977376 319.642205,549.931304 L319.727572,549.914027 C319.918227,549.873715 320.111727,549.84492 320.308072,549.821884 C320.364984,549.816125 320.41905,549.810366 320.475962,549.807487 C320.635315,549.793089 320.800359,549.784451 320.962558,549.781571 C321.064999,549.781571 321.16744,549.784451 321.269882,549.78733 C321.358095,549.79021 321.446308,549.798848 321.534521,549.804607 C321.69672,550.412176 321.779242,551.04854 321.779242,551.70218 C321.776397,553.651584 321.050771,555.47429 319.727572,556.84204 L319.727572,556.84204 Z" id="形状"></path>
        </g>
    </g>
</svg>