<?xml version="1.0" encoding="UTF-8"?>
<svg width="21px" height="18px" viewBox="0 0 21 18" version="1.1" xmlns="http://www.w3.org/2000/svg" xmlns:xlink="http://www.w3.org/1999/xlink">
    <!-- Generator: Sketch 63 (92445) - https://sketch.com -->
    <title>形状</title>
    <desc>Created with Sketch.</desc>
    <g id="页面-1" stroke="none" stroke-width="1" fill="none" fill-rule="evenodd">
        <g id="景点介绍" transform="translate(-233.000000, -547.000000)" fill="#B7A5A6" fill-rule="nonzero">
            <path d="M236.056818,551.344828 C235.350772,551.344828 234.778409,551.900612 234.778409,552.586207 L234.778409,562.517241 C234.778409,563.202836 235.350772,563.758621 236.056818,563.758621 L251.397727,563.758621 C252.103773,563.758621 252.676136,563.202836 252.676136,562.517241 L252.676136,552.586207 C252.676136,551.900612 252.103773,551.344828 251.397727,551.344828 L236.056818,551.344828 Z M236.056818,550.103448 L251.397727,550.103448 C252.809819,550.103448 253.954545,551.215017 253.954545,552.586207 L253.954545,562.517241 C253.954545,563.888431 252.809819,565 251.397727,565 L236.056818,565 C234.644726,565 233.5,563.888431 233.5,562.517241 L233.5,552.586207 C233.5,551.215017 234.644726,550.103448 236.056818,550.103448 Z M243.727273,561.896552 C246.198433,561.896552 248.201705,559.951306 248.201705,557.551724 C248.201705,555.152142 246.198433,553.206897 243.727273,553.206897 C241.256112,553.206897 239.252841,555.152142 239.252841,557.551724 C239.252841,559.951306 241.256112,561.896552 243.727273,561.896552 L243.727273,561.896552 Z M243.727273,560.655172 C241.962158,560.655172 240.53125,559.265711 240.53125,557.551724 C240.53125,555.837737 241.962158,554.448276 243.727273,554.448276 C245.492387,554.448276 246.923295,555.837737 246.923295,557.551724 C246.923295,559.265711 245.492387,560.655172 243.727273,560.655172 Z M240.850852,548.241379 C240.497829,548.241379 240.211648,547.963487 240.211648,547.62069 C240.211648,547.277892 240.497829,547 240.850852,547 L247.242898,547 C247.595921,547 247.882102,547.277892 247.882102,547.62069 C247.882102,547.963487 247.595921,548.241379 247.242898,548.241379 L240.850852,548.241379 L240.850852,548.241379 Z" id="形状"></path>
        </g>
    </g>
</svg>